<svg viewBox="0 0 28 16" fill="none" xmlns="http://www.w3.org/2000/svg">
<path fill-rule="evenodd" clip-rule="evenodd" d="M4.11012 11.9721C7.30252 14.2518 10.6185 15.4568 13.6996 15.4568C16.7807 15.4568 20.0967 14.2518 23.2891 11.9721C25.6756 10.2679 27.1485 8.5794 27.2101 8.50836C27.4622 8.21716 27.4622 7.78502 27.2101 7.49388C27.1485 7.42278 25.6755 5.73435 23.2891 4.03018C20.0967 1.75055 16.7807 0.545532 13.6996 0.545532C10.6186 0.545532 7.30258 1.75061 4.11012 4.03018C1.72357 5.73435 0.250661 7.42285 0.189112 7.49388C-0.0630372 7.78508 -0.0630372 8.21723 0.189112 8.50836C0.250661 8.57952 1.72364 10.2679 4.11012 11.9721ZM5.04097 10.7329C3.55665 9.67666 2.43245 8.60862 1.83679 8.00125C2.43258 7.39368 3.55683 6.32565 5.04097 5.26957C7.07588 3.82152 10.2298 2.09528 13.6993 2.09528C17.1688 2.09528 20.3228 3.82152 22.3577 5.26957C23.842 6.32583 24.9662 7.39387 25.5618 8.00125C24.966 8.60868 23.8418 9.67685 22.3577 10.7329C20.3228 12.1809 17.1688 13.9072 13.6993 13.9072C10.2298 13.9072 7.07588 12.1809 5.04097 10.7329Z" fill="#888888"/>
<circle cx="13.846" cy="7.99991" r="4.61538" fill="#888888"/>
<path d="M17.7034 8.2145C16.849 8.2145 16.1538 7.51935 16.1538 6.66491C16.1538 5.81047 16.849 5.11533 17.7034 5.11533C18.5579 5.11533 19.253 5.81047 19.253 6.66491C19.253 7.51935 18.5579 8.2145 17.7034 8.2145Z" fill="white"/>
<line x1="6.6336" y1="14.6598" x2="19.6336" y2="0.659774" stroke="white"/>
<line x1="7.6336" y1="14.6598" x2="20.6336" y2="0.659774" stroke="#888888"/>
</svg>
