<svg width="24" height="24" xmlns="http://www.w3.org/2000/svg">
    <g fill="none" fill-rule="evenodd">
        <path d="M18.526 9.354c1.591 1.136 2.573 2.261 2.614 2.309a.517.517 0 0 1 0 .676c-.041.047-1.023 1.173-2.614 2.31-2.128 1.519-4.339 2.322-6.393 2.322-.46 0-.926-.04-1.399-.12l.613-.956c.259.028.521.043.786.043 2.313 0 4.416-1.15 5.772-2.116a16.304 16.304 0 0 0 2.136-1.821 16.3 16.3 0 0 0-2.136-1.821 13.395 13.395 0 0 0-2.103-1.234l.562-.877c.724.345 1.448.774 2.162 1.285zM12.133 7.03c.755 0 1.53.109 2.316.322l-.588.916a7.663 7.663 0 0 0-1.728-.204c-2.313 0-4.416 1.15-5.772 2.116A16.297 16.297 0 0 0 4.225 12a16.302 16.302 0 0 0 2.136 1.822c.769.547 1.777 1.154 2.927 1.577l-.568.888a13.75 13.75 0 0 1-2.98-1.639c-1.59-1.136-2.573-2.262-2.614-2.309a.517.517 0 0 1 0-.676c.041-.048 1.023-1.173 2.614-2.31 2.128-1.52 4.339-2.323 6.393-2.323z" fill="#888" fill-rule="nonzero"/>
        <path d="M12.133 15.203a3.206 3.206 0 0 1-3.202-3.202 3.206 3.206 0 0 1 3.202-3.203 3.2 3.2 0 0 1 2.11.793.517.517 0 1 1-.681.777 2.172 2.172 0 0 0-3.598 1.633c0 1.196.973 2.17 2.169 2.17 1.196 0 2.17-.974 2.17-2.17a.517.517 0 0 1 1.032 0 3.206 3.206 0 0 1-3.202 3.202z"/>
        <path d="M14.865 10.409a3.077 3.077 0 0 1-2.981 4.649zM12.23 8.923c.382 0 .747.07 1.085.197l-3.25 5.067a3.077 3.077 0 0 1 2.164-5.264z" fill="#888"/>
        <path d="M14.802 12.143a1.034 1.034 0 0 1 0-2.066 1.034 1.034 0 0 1 0 2.066z" fill="#FFF" fill-rule="nonzero"/>
        <path d="M16.84 5.737 8.575 19.101a.5.5 0 1 0 .85.526L17.69 6.263a.5.5 0 0 0-.85-.526z" fill="#888" fill-rule="nonzero"/>
    </g>
</svg>
